<?xml version="1.0" encoding="UTF-8"?>
<svg width="94px" height="85px" viewBox="0 0 94 85" version="1.1" xmlns="http://www.w3.org/2000/svg" xmlns:xlink="http://www.w3.org/1999/xlink">
    <!-- Generator: Sketch 47 (45396) - http://www.bohemiancoding.com/sketch -->
    <title>Breathe</title>
    <desc>Created with Sketch.</desc>
    <defs></defs>
    <g id="Prototype---Round-1-UX" stroke="none" stroke-width="1" fill="none" fill-rule="evenodd">
        <g id="Try-a-Goal" transform="translate(-137.000000, -375.000000)" fill-rule="nonzero" fill="#FFFFFF">
            <g id="card_onboarding_01" transform="translate(24.000000, 276.000000)">
                <g id="Breathe" transform="translate(113.000000, 99.000000)">
                    <path d="M92.8661077,22.5240537 C92.8661077,22.5240537 92.6507188,21.5861931 92.5789225,21.2976206 C92.5789225,21.1533343 92.5071263,21.0811912 92.43533,20.936905 C92.3635337,20.7926187 92.2199411,20.2154737 92.1481448,20.0711875 C92.1481448,19.9990443 92.1481448,19.9269012 92.0763486,19.8547581 C91.430182,17.6904643 90.3532378,15.8868862 89.5634787,14.4440237 C82.3120544,2.39612182 67.5220205,-1.28317756 56.8243747,0.376114316 C47.1318768,1.81897682 39.8086562,6.72470932 35.7880644,14.3718806 C35.7880644,14.3718806 35.7880644,14.4440237 35.7162682,14.4440237 C34.7111202,16.5361743 34.0649537,18.2676093 33.7059723,19.8547581 L33.4187872,20.936905 C33.3469909,21.0811912 33.3469909,21.2254775 33.3469909,21.3697637 L33.131602,22.5240537 C32.7726206,24.7604906 32.7008244,27.1412137 33.0598058,29.6662231 L33.0598058,30.3155112 C33.0598058,30.8926562 32.9162132,31.4698012 32.6290281,32.0469462 L27.4596959,43.0848443 C26.7417331,44.59985 26.8853256,46.2591418 27.746881,47.7020043 C28.6084364,49.1448668 30.1161583,50.0105844 31.839269,50.0105844 L33.634176,50.0105844 L32.6290281,54.6277444 C32.341843,55.9263206 32.4136392,57.29704 32.9162132,58.5234731 L33.131602,59.028475 C33.7777686,60.75991 33.9213611,62.5634881 33.5623797,64.3670662 C33.3469909,65.7377856 33.634176,67.108505 34.4239351,68.262795 C35.2136942,69.417085 36.434231,70.1385162 37.7983603,70.3549456 L45.0497847,71.4370925 L45.0497847,83.1964219 C45.0497847,84.2064256 45.8395437,85 46.8446917,85 C47.8498396,85 48.6395987,84.2064256 48.6395987,83.1964219 L48.6395987,69.9220869 C48.6395987,69.0563694 47.9934322,68.262795 47.1318768,68.1185087 L38.3727305,66.8199325 C38.0137491,66.7477894 37.6547677,66.53136 37.4393789,66.2427875 C37.22399,65.8820719 37.0803975,65.5213562 37.1521938,65.0884975 C37.5829715,62.6356312 37.3675826,60.182765 36.5060272,57.874185 L36.2906384,57.3691831 C36.0752496,56.7920381 36.0034533,56.14275 36.1470458,55.4934619 L37.5829715,48.7120081 C37.726564,48.2070062 37.5829715,47.6298612 37.22399,47.1970025 C36.8650086,46.7641437 36.3624347,46.5477143 35.8598607,46.5477143 L31.9110653,46.5477143 C31.4802876,46.5477143 31.1213062,46.331285 30.9059173,45.9705693 C30.6187322,45.5377106 30.6187322,45.1048518 30.7623248,44.7441362 L35.931657,33.7062381 C36.434231,32.6240912 36.6496198,31.5419443 36.6496198,30.4597975 L36.6496198,29.6662231 C36.6496198,29.59408 36.6496198,29.5219368 36.6496198,29.4497937 C36.3624347,27.2133568 36.3624347,25.1212062 36.7214161,23.245485 L36.9368049,21.9469087 C36.9368049,21.8747656 36.9368049,21.8026225 36.9368049,21.7304793 L37.1521938,20.8647618 C37.5111752,19.4940425 38.0855454,17.9790368 38.9471008,16.1754587 C42.4651185,9.5382912 48.8549875,5.35398994 57.4705412,4.05541369 C67.0194466,2.54040807 80.158166,5.78684869 86.5480349,16.3918881 C87.2659978,17.6183212 88.1275531,19.20547 88.7019234,21.0090481 C88.7737197,21.51405 88.9891085,22.091195 89.1327011,22.4519106 C89.2044973,22.8126262 89.4198862,23.5340575 89.4198862,23.6062006 C92.0045523,33.4898087 89.5634787,42.3634131 82.0248693,49.9384412 L81.7376841,50.2270137 C80.8043325,51.1648744 79.153018,52.8241662 77.9324813,55.4934619 C75.9221854,60.1106219 76.2811668,65.7377856 78.8658329,72.0142375 C79.2248143,72.9520981 80.3017585,73.3849569 81.2351102,73.0242412 C82.1684618,72.6635256 82.5992395,71.5813787 82.2402581,70.6435181 C80.0145734,65.2327837 79.7273883,60.6156237 81.3069064,56.9363244 C82.2402581,54.8441737 83.4607949,53.6177406 84.3223502,52.7520231 L84.6095354,52.4634506 C93.0097002,43.7341325 95.8097552,33.7062381 92.8661077,22.5240537 Z" id="Shape"></path>
                    <path d="M19.5469473,49.7569656 C20.138086,49.3451517 20.138086,48.7274309 19.6208396,48.315617 C19.1035933,47.9038031 18.1429929,47.9038031 17.5518542,48.2641402 C16.1478999,49.1907215 14.5222685,49.9113958 12.7488525,50.3746864 C11.0493288,50.8379771 9.20202038,51.043884 7.35471201,50.9924073 C5.50740363,50.9409305 3.73398759,50.6835469 2.03446389,50.1687795 C1.29554054,49.9628725 0.40883252,50.1687795 0.11326318,50.6835469 C-0.18230616,51.1983142 0.11326318,51.8160351 0.85218653,52.021942 C2.92117191,52.6396628 5.06404962,52.9485233 7.28081967,53 C7.42860434,53 7.57638901,53 7.72417368,53 C9.79315906,53 11.8621444,52.7426163 13.8572375,52.227849 C15.9262229,51.7645583 17.8474236,50.8894538 19.5469473,49.7569656 Z" id="Shape"></path>
                    <path d="M26.0520946,59.4098625 C24.1221372,61.042374 22.6117358,62.8975007 21.6048015,65.0494476 C20.5978672,67.1271894 20.0944001,69.2791363 20.0104889,71.5052883 C19.9265777,73.7314403 20.3461337,75.9575923 21.2691568,78.0353341 C21.5208903,78.6289747 22.1921798,79 22.8634694,79 C23.0312918,79 23.2830253,79 23.4508477,78.9257949 C24.2899596,78.6289747 24.7934267,77.8127189 24.457782,76.9964632 C23.7025813,75.2897467 23.3669365,73.43462 23.4508477,71.5794934 C23.5347589,69.7243667 23.9543148,67.9434451 24.7934267,66.2367286 C25.6325387,64.455807 26.8912065,62.8975007 28.4855191,61.5618095 C29.1568086,60.9681689 29.1568086,60.0777081 28.5694303,59.4840676 C27.8142296,58.8904271 26.7233841,58.816222 26.0520946,59.4098625 Z" id="Shape"></path>
                    <path d="M24.5487928,56.4240433 C23.895269,55.8707558 22.9149834,55.8707558 22.2614596,56.3548824 L14.5008651,62.648528 C13.8473413,63.2018155 13.8473413,64.0317468 14.4191746,64.5850344 C14.7459365,64.8616781 15.1543888,65 15.5628412,65 C15.9712935,65 16.3797459,64.8616781 16.7065077,64.5850344 L24.4671023,58.2913887 C25.120626,57.8072622 25.2023165,56.9773309 24.5487928,56.4240433 Z" id="Shape"></path>
                </g>
            </g>
        </g>
    </g>
</svg>