<?xml version="1.0" encoding="UTF-8"?>
<svg width="18px" height="20px" viewBox="0 0 18 20" version="1.1" xmlns="http://www.w3.org/2000/svg" xmlns:xlink="http://www.w3.org/1999/xlink">
    <!-- Generator: Sketch 49 (51002) - http://www.bohemiancoding.com/sketch -->
    <title>Shape</title>
    <desc>Created with Sketch.</desc>
    <defs></defs>
    <g id="Page-1" stroke="none" stroke-width="1" fill="none" fill-rule="evenodd">
        <g id="Icons/Inactive/Challenges" transform="translate(-20.000000, -7.000000)" fill="#000000" fill-rule="nonzero">
            <path d="M34,10 L34,8 L24,8 L24,10 L21,10.0016694 L21,13.2086811 C21,14.3037406 22,14.9008468 24,15 L24,16.8146912 C24.8195122,17.9165275 26.4,18.8330551 28,19 L28,23 L24.5799999,23 C24.2678048,23 24,23.2850615 24,23.5521734 L24,25.4991653 C24,25.7662771 24.2678048,26 24.5799999,26 L33.4199982,26 C33.7321933,26 34,25.7662771 34,25.4991653 L34,23.5855623 C34,23.3184505 33.7321933,23 33.4199982,23 L30,23 L30,19 C31.6,18.8330551 33.1804878,17.9499165 34,16.8480801 L34,15 C36,14.8501597 37,14.2641831 37,13.2420701 L37,10.0016694 L34,10 Z M35,9.00055633 L37.0005565,9.0016696 C37.5526238,9.00197682 38,9.44960201 38,10.0016694 L38,13.2420701 C38,14.7252845 36.8953475,15.5695644 35,15.8876723 L35,16.8480801 C35,17.0630823 34.9307056,17.2723594 34.8023933,17.4448757 C33.9602517,18.5771375 32.5271294,19.4661659 31,19.8383184 L31,22 L33.4199982,22 C34.2839132,22 35,22.7635587 35,23.5855623 L35,25.4991653 C35,26.353811 34.2541844,27 33.4199982,27 L24.5799999,27 C23.7458132,27 23,26.3538102 23,25.4991653 L23,23.5521734 C23,22.7196512 23.7287366,22 24.5799999,22 L27,22 L27,19.8358853 C25.4804987,19.4578965 24.0449787,18.5507808 23.1976067,17.4114867 C23.0692944,17.2389705 23,17.0296933 23,16.8146912 L23,15.9059974 C21.109798,15.6183444 20,14.7463452 20,13.2086811 L20,10.0016694 C20,9.44960201 20.4473762,9.00197682 20.9994435,9.0016696 L23,9.00055633 L23,8 C23,7.44771525 23.4477153,7 24,7 L34,7 C34.5522847,7 35,7.44771525 35,8 L35,9.00055633 Z M23,8.5 L24,8.5 L24,17 L23,17 L23,8.5 Z M34,8.5 L35,8.5 L35,17 L34,17 L34,8.5 Z M31,19 L31,20 L27,20 L27,19 L31,19 Z M31,22 L31,23 L27,23 L27,22 L31,22 Z" id="Shape"></path>
        </g>
    </g>
</svg>