<?xml version="1.0" encoding="UTF-8"?>
<svg width="55px" height="70px" viewBox="0 0 55 70" version="1.1" xmlns="http://www.w3.org/2000/svg" xmlns:xlink="http://www.w3.org/1999/xlink">
    <!-- Generator: Sketch 47 (45396) - http://www.bohemiancoding.com/sketch -->
    <title>Eat</title>
    <desc>Created with Sketch.</desc>
    <defs></defs>
    <g id="Prototype---Round-1-UX" stroke="none" stroke-width="1" fill="none" fill-rule="evenodd">
        <g id="Value-Prop-3" transform="translate(-161.000000, -185.000000)" stroke="#FFFFFF" stroke-width="2" fill-rule="nonzero">
            <g id="Eat-Icon" transform="translate(124.000000, 156.000000)">
                <g id="Eat" transform="translate(37.000000, 29.000000)">
                    <path d="M10.6072236,69 C11.9443891,69 13.0337927,67.9122153 13.0333082,66.5783222 L13.0333082,24.4901144 L13.5365353,24.2020683 C16.8221621,22.3213828 19,17.9655605 19,13.0872332 C19,6.37362135 14.8939008,1 10,1 C5.10566335,1 1,6.37330512 1,13.0872332 C1,17.9649057 3.17785932,22.3207709 6.46358888,24.2021394 L6.9666918,24.49021 L6.9666918,66.5783222 C6.9666918,67.9124174 8.05589291,69 9.39346172,69 L10.6072236,69 Z M12.2925776,23.9909506 L12.2925776,66.5783222 C12.2925776,67.5086121 11.5368882,68.2626578 10.6072236,68.2626578 L9.39346172,68.2626578 C8.46379713,68.2626578 7.70810774,67.5086121 7.70810774,66.5783222 L7.70810774,23.9909505 L7.48730179,23.8937407 C4.05260343,22.3805019 1.74141594,17.9406566 1.74141594,13.0872332 C1.74141594,6.88805337 5.35378635,1.73734224 10,1.73734224 C14.6460752,1.73734224 18.258525,6.88783088 18.2592694,13.0872332 C18.2592694,17.9404609 15.9475213,22.3811821 12.5131353,23.89385 L12.2925776,23.9909506 Z" id="Shape"></path>
                    <path d="M44.5298421,69 C45.8174173,69 46.875368,67.9211549 46.875368,66.5879291 L46.875368,42.1948334 L47.824963,42.1469081 C51.2653981,41.9732722 54,39.0520378 54,35.5060101 L54,7.64986303 C54,3.97962848 51.0788425,1 47.5,1 C43.9211575,1 41,3.97962848 41,7.64986303 L41,66.5879291 C41,67.9214206 42.0575441,69 43.3455259,69 L44.5298421,69 Z M46.1989473,41.2836222 L46.1989473,66.5872467 C46.1989473,67.5118637 45.4559293,68.2696608 44.5298421,68.2696608 L43.3455259,68.2696608 C42.4194387,68.2696608 41.6764207,67.5118637 41.6764207,66.5872467 L41.6764207,7.64918062 C41.6764207,4.38865984 44.2835658,1.72965675 47.5,1.72965675 C50.7161849,1.72965675 53.3234441,4.38903086 53.3242484,7.64986303 L53.3242484,35.5060101 C53.3242484,38.7665309 50.7171033,41.425534 47.5006691,41.425534 C47.2191932,41.425534 46.927832,41.3992264 46.5869873,41.3450094 L46.1989473,41.2836222 Z" id="Shape"></path>
                    <path d="M31.7612633,25.04645 L31.7612633,66.6085252 C31.7612633,67.5321675 31.0168199,68.2866845 30.0921581,68.2866845 L28.9071728,68.2866845 C27.982511,68.2866845 27.2380676,67.5321675 27.2380676,66.6085252 L27.2380676,25.04645 L27.0382345,24.9518508 C24.9935707,23.9844353 23.6764207,21.894372 23.6764207,19.6208991 L23.6764207,2.35631868 C23.6764207,2.1569292 23.5215867,2 23.3382104,2 C23.154834,2 23,2.1569292 23,2.35631868 L23,19.6215773 C23,21.900868 24.1837384,24.0382136 26.0938089,25.2366948 L26.562316,25.5306615 L26.562316,66.6092033 C26.562316,67.9295902 27.6184347,69 28.9078419,69 L30.0928272,69 C31.38232,69 32.4381565,67.9295807 32.437684,66.6085252 L32.437684,25.5299833 L32.9061911,25.2360167 C34.8164812,24.0373977 36,21.9006111 36,19.6208991 L36,2.35631868 C36,2.1569292 35.845166,2 35.6617896,2 C35.4784133,2 35.3235793,2.1569292 35.3235793,2.35631868 L35.3235793,19.6208991 C35.3235793,21.8941235 34.0060306,23.9846893 31.9612808,24.9517635 L31.7612633,25.04645 Z" id="Shape"></path>
                    <path d="M27.5,15 C27.8004207,15 28,14.8220743 28,14.662744 L28,2.33725595 C28,2.17859436 27.7996707,2 27.5,2 C27.2003293,2 27,2.17859436 27,2.33725595 L27,14.662744 C27,14.8214056 27.2003293,15 27.5,15 Z" id="Shape"></path>
                    <path d="M31.5,15 C31.7999962,15 32,14.8217574 32,14.662744 L32,2.33725595 C32,2.17859436 31.7996707,2 31.5,2 C31.2003293,2 31,2.17859436 31,2.33725595 L31,14.662744 C31,14.8214056 31.2003293,15 31.5,15 Z" id="Shape"></path>
                </g>
            </g>
        </g>
    </g>
</svg>