<?xml version="1.0" encoding="UTF-8"?>
<svg width="20px" height="20px" viewBox="0 0 20 20" version="1.1" xmlns="http://www.w3.org/2000/svg" xmlns:xlink="http://www.w3.org/1999/xlink">
    <!-- Generator: Sketch 47.1 (45422) - http://www.bohemiancoding.com/sketch -->
    <title>explore</title>
    <desc>Created with Sketch.</desc>
    <defs></defs>
    <g id="Symbols" stroke="none" stroke-width="1" fill="none" fill-rule="evenodd">
        <g id="Overrides/Tab-Bar/Icons/Unselected/3" transform="translate(-21.000000, -7.000000)" fill-rule="nonzero" fill="#000000">
            <path d="M31,26.8850575 C25.5517241,26.8850575 21.1149425,22.4482759 21.1149425,17 C21.1149425,11.5517241 25.5517241,7.11494253 31,7.11494253 C36.4482759,7.11494253 40.8850575,11.5517241 40.8850575,17 C40.8850575,22.4482759 36.4482759,26.8850575 31,26.8850575 Z M31,8.49425287 C26.3103448,8.49425287 22.4942529,12.3103448 22.4942529,17 C22.4942529,21.6896552 26.3103448,25.5057471 31,25.5057471 C35.6896552,25.5057471 39.5057471,21.6896552 39.5057471,17 C39.5057471,12.3103448 35.6896552,8.49425287 31,8.49425287 Z M35.183908,13.3448276 C35.137931,13.0689655 34.9310345,12.8390805 34.6551724,12.7931034 C34.4712644,12.7471264 34.2643678,12.7931034 34.1264368,12.908046 L28.8390805,14.3333333 C28.5862069,14.4022989 28.4022989,14.6091954 28.3333333,14.862069 L26.8850575,20.2413793 C26.8390805,20.3333333 26.816092,20.4252874 26.816092,20.5172414 C26.816092,20.7471264 26.9310345,20.9770115 27.1149425,21.091954 C27.2298851,21.1609195 27.3678161,21.2068966 27.5057471,21.2068966 C27.5977011,21.2068966 27.7126437,21.183908 27.8045977,21.137931 L33.183908,19.6896552 C33.183908,19.6896552 33.183908,19.6896552 33.183908,19.6896552 C33.4137931,19.6206897 33.6206897,19.4367816 33.6896552,19.183908 L35.1149425,13.8275862 C35.183908,13.6896552 35.2298851,13.5287356 35.183908,13.3448276 Z M32.4482759,18.4482759 L28.4942529,19.5057471 L29.5517241,15.5287356 L33.5057471,14.4712644 L32.4482759,18.4482759 Z M23.6436782,17.6896552 L21.8045977,17.6896552 C21.4137931,17.6896552 21.1149425,17.3908046 21.1149425,17 C21.1149425,16.6091954 21.4137931,16.3103448 21.8045977,16.3103448 L23.6436782,16.3103448 C24.0344828,16.3103448 24.3333333,16.6091954 24.3333333,17 C24.3333333,17.3908046 24.0344828,17.6896552 23.6436782,17.6896552 Z M40.1954023,17.6896552 L38.3563218,17.6896552 C37.9655172,17.6896552 37.6666667,17.3908046 37.6666667,17 C37.6666667,16.6091954 37.9655172,16.3103448 38.3563218,16.3103448 L40.1954023,16.3103448 C40.5862069,16.3103448 40.8850575,16.6091954 40.8850575,17 C40.8850575,17.3908046 40.5632184,17.6896552 40.1954023,17.6896552 Z M31,10.3333333 C30.6091954,10.3333333 30.3103448,10.0344828 30.3103448,9.64367816 L30.3103448,7.8045977 C30.3103448,7.4137931 30.6091954,7.11494253 31,7.11494253 C31.3908046,7.11494253 31.6896552,7.4137931 31.6896552,7.8045977 L31.6896552,9.64367816 C31.6896552,10.0344828 31.3908046,10.3333333 31,10.3333333 Z M31,26.8850575 C30.6091954,26.8850575 30.3103448,26.5862069 30.3103448,26.1954023 L30.3103448,24.3563218 C30.3103448,23.9655172 30.6091954,23.6666667 31,23.6666667 C31.3908046,23.6666667 31.6896552,23.9655172 31.6896552,24.3563218 L31.6896552,26.1954023 C31.6896552,26.5632184 31.3908046,26.8850575 31,26.8850575 Z" id="explore"></path>
        </g>
    </g>
</svg>