<?xml version="1.0" encoding="UTF-8"?>
<svg width="20px" height="20px" viewBox="0 0 20 20" version="1.1" xmlns="http://www.w3.org/2000/svg" xmlns:xlink="http://www.w3.org/1999/xlink">
    <!-- Generator: Sketch 47.1 (45422) - http://www.bohemiancoding.com/sketch -->
    <title>explore-active</title>
    <desc>Created with Sketch.</desc>
    <defs></defs>
    <g id="Symbols" stroke="none" stroke-width="1" fill="none" fill-rule="evenodd">
        <g id="Overrides/Tab-Bar/Icons/Active/3" transform="translate(-21.000000, -7.000000)" fill-rule="nonzero" fill="#DD2C35">
            <g id="explore-active" transform="translate(21.000000, 7.000000)">
                <path d="M10,20 C4.48837209,20 0,15.5116279 0,10 C0,4.48837209 4.48837209,0 10,0 C15.5116279,0 20,4.48837209 20,10 C20,15.5116279 15.5116279,20 10,20 Z" id="Shape" fill-opacity="0.2"></path>
                <path d="M10,19.8850575 C4.55172414,19.8850575 0.114942529,15.4482759 0.114942529,10 C0.114942529,4.55172414 4.55172414,0.114942529 10,0.114942529 C15.4482759,0.114942529 19.8850575,4.55172414 19.8850575,10 C19.8850575,15.4482759 15.4482759,19.8850575 10,19.8850575 Z M10,1.49425287 C5.31034483,1.49425287 1.49425287,5.31034483 1.49425287,10 C1.49425287,14.6896552 5.31034483,18.5057471 10,18.5057471 C14.6896552,18.5057471 18.5057471,14.6896552 18.5057471,10 C18.5057471,5.31034483 14.6896552,1.49425287 10,1.49425287 Z M14.183908,6.34482759 C14.137931,6.06896552 13.9310345,5.83908046 13.6551724,5.79310345 C13.4712644,5.74712644 13.2643678,5.79310345 13.1264368,5.90804598 L7.83908046,7.33333333 C7.5862069,7.40229885 7.40229885,7.6091954 7.33333333,7.86206897 L5.88505747,13.2413793 C5.83908046,13.3333333 5.81609195,13.4252874 5.81609195,13.5172414 C5.81609195,13.7471264 5.93103448,13.9770115 6.11494253,14.091954 C6.22988506,14.1609195 6.36781609,14.2068966 6.50574713,14.2068966 C6.59770115,14.2068966 6.71264368,14.183908 6.8045977,14.137931 L12.183908,12.6896552 C12.183908,12.6896552 12.183908,12.6896552 12.183908,12.6896552 C12.4137931,12.6206897 12.6206897,12.4367816 12.6896552,12.183908 L14.1149425,6.82758621 C14.183908,6.68965517 14.2298851,6.52873563 14.183908,6.34482759 Z M11.4482759,11.4482759 L7.49425287,12.5057471 L8.55172414,8.52873563 L12.5057471,7.47126437 L11.4482759,11.4482759 Z M2.64367816,10.6896552 L0.804597701,10.6896552 C0.413793103,10.6896552 0.114942529,10.3908046 0.114942529,10 C0.114942529,9.6091954 0.413793103,9.31034483 0.804597701,9.31034483 L2.64367816,9.31034483 C3.03448276,9.31034483 3.33333333,9.6091954 3.33333333,10 C3.33333333,10.3908046 3.03448276,10.6896552 2.64367816,10.6896552 Z M19.1954023,10.6896552 L17.3563218,10.6896552 C16.9655172,10.6896552 16.6666667,10.3908046 16.6666667,10 C16.6666667,9.6091954 16.9655172,9.31034483 17.3563218,9.31034483 L19.1954023,9.31034483 C19.5862069,9.31034483 19.8850575,9.6091954 19.8850575,10 C19.8850575,10.3908046 19.5632184,10.6896552 19.1954023,10.6896552 Z M10,3.33333333 C9.6091954,3.33333333 9.31034483,3.03448276 9.31034483,2.64367816 L9.31034483,0.804597701 C9.31034483,0.413793103 9.6091954,0.114942529 10,0.114942529 C10.3908046,0.114942529 10.6896552,0.413793103 10.6896552,0.804597701 L10.6896552,2.64367816 C10.6896552,3.03448276 10.3908046,3.33333333 10,3.33333333 Z M10,19.8850575 C9.6091954,19.8850575 9.31034483,19.5862069 9.31034483,19.1954023 L9.31034483,17.3563218 C9.31034483,16.9655172 9.6091954,16.6666667 10,16.6666667 C10.3908046,16.6666667 10.6896552,16.9655172 10.6896552,17.3563218 L10.6896552,19.1954023 C10.6896552,19.5632184 10.3908046,19.8850575 10,19.8850575 Z" id="Shape"></path>
            </g>
        </g>
    </g>
</svg>