<?xml version="1.0" encoding="UTF-8"?>
<svg width="20px" height="20px" viewBox="0 0 20 20" version="1.1" xmlns="http://www.w3.org/2000/svg" xmlns:xlink="http://www.w3.org/1999/xlink">
    <!-- Generator: Sketch 49 (51002) - http://www.bohemiancoding.com/sketch -->
    <title>Shape</title>
    <desc>Created with Sketch.</desc>
    <defs></defs>
    <g id="Page-1" stroke="none" stroke-width="1" fill="none" fill-rule="evenodd">
        <g id="Icons/Inactive/Explore" transform="translate(-19.000000, -7.000000)" fill="#000000" fill-rule="nonzero">
            <path d="M20.0137256,16.5 L21.5,16.5 C21.7761424,16.5 22,16.7238576 22,17 C22,17.2761424 21.7761424,17.5 21.5,17.5 L20.0137256,17.5 C20.2649727,22.0650434 23.9349566,25.7350273 28.5,25.9862744 L28.5,24.5 C28.5,24.2238576 28.7238576,24 29,24 C29.2761424,24 29.5,24.2238576 29.5,24.5 L29.5,25.9862744 C34.0650434,25.7350273 37.7350273,22.0650434 37.9862744,17.5 L36.5,17.5 C36.2238576,17.5 36,17.2761424 36,17 C36,16.7238576 36.2238576,16.5 36.5,16.5 L37.9862744,16.5 C37.7350273,11.9349566 34.0650434,8.26497274 29.5,8.01372561 L29.5,9.5 C29.5,9.77614237 29.2761424,10 29,10 C28.7238576,10 28.5,9.77614237 28.5,9.5 L28.5,8.01372561 C23.9349566,8.26497274 20.2649727,11.9349566 20.0137256,16.5 Z M29,27 C23.4883721,27 19,22.5116279 19,17 C19,11.4883721 23.4883721,7 29,7 C34.5116279,7 39,11.4883721 39,17 C39,22.5116279 34.5116279,27 29,27 Z M30.733945,18.739726 L32,14 L27.266055,15.260274 L26,20 L30.733945,18.739726 Z M30.9912052,19.7060682 L26.2572603,20.9663422 C25.5143964,21.1641079 24.8354868,20.4846307 25.0338731,19.7419324 L26.2999282,15.0022064 C26.3923474,14.656217 26.6627283,14.3860619 27.0087948,14.2939318 L31.7427397,13.0336578 C32.4856036,12.8358921 33.1645132,13.5153693 32.9661269,14.2580676 L31.7000718,18.9977936 C31.6076526,19.343783 31.3372717,19.6139381 30.9912052,19.7060682 Z" id="Shape"></path>
        </g>
    </g>
</svg>