<?xml version="1.0" encoding="UTF-8"?>
<svg width="19px" height="16px" viewBox="0 0 19 16" version="1.1" xmlns="http://www.w3.org/2000/svg" xmlns:xlink="http://www.w3.org/1999/xlink">
    <!-- Generator: Sketch Beta 47.1 (45415) - http://www.bohemiancoding.com/sketch -->
    <title>format_list_bulleted - material</title>
    <desc>Created with Sketch Beta.</desc>
    <defs></defs>
    <g id="Profile" stroke="none" stroke-width="1" fill="none" fill-rule="evenodd">
        <g transform="translate(-17.000000, -366.000000)" id="Group" fill="#000000">
            <g transform="translate(0.000000, 261.000000)">
                <path d="M21.984,105.616 L36,105.616 L36,107.584 L21.984,107.584 L21.984,105.616 Z M21.984,113.584 L21.984,111.616 L36,111.616 L36,113.584 L21.984,113.584 Z M21.984,119.584 L21.984,117.616 L36,117.616 L36,119.584 L21.984,119.584 Z M18.984,117.088 C19.4000021,117.088 19.7559985,117.239998 20.052,117.544 C20.3480015,117.848002 20.496,118.199998 20.496,118.6 C20.496,119.000002 20.3440015,119.347999 20.04,119.644 C19.7359985,119.940001 19.384002,120.088 18.984,120.088 C18.583998,120.088 18.2360015,119.940001 17.94,119.644 C17.6439985,119.347999 17.496,119.000002 17.496,118.6 C17.496,118.199998 17.6399986,117.848002 17.928,117.544 C18.2160014,117.239998 18.5679979,117.088 18.984,117.088 Z M18.984,105.088 C19.4000021,105.088 19.7559985,105.235999 20.052,105.532 C20.3480015,105.828001 20.496,106.183998 20.496,106.6 C20.496,107.016002 20.3480015,107.367999 20.052,107.656 C19.7559985,107.944001 19.4000021,108.088 18.984,108.088 C18.5679979,108.088 18.2160014,107.944001 17.928,107.656 C17.6399986,107.367999 17.496,107.016002 17.496,106.6 C17.496,106.183998 17.6399986,105.828001 17.928,105.532 C18.2160014,105.235999 18.5679979,105.088 18.984,105.088 Z M18.984,111.088 C19.4000021,111.088 19.7559985,111.235999 20.052,111.532 C20.3480015,111.828001 20.496,112.183998 20.496,112.6 C20.496,113.016002 20.3480015,113.367999 20.052,113.656 C19.7559985,113.944001 19.4000021,114.088 18.984,114.088 C18.5679979,114.088 18.2160014,113.944001 17.928,113.656 C17.6399986,113.367999 17.496,113.016002 17.496,112.6 C17.496,112.183998 17.6399986,111.828001 17.928,111.532 C18.2160014,111.235999 18.5679979,111.088 18.984,111.088 Z" id="format_list_bulleted---material"></path>
            </g>
        </g>
    </g>
</svg>