<?xml version="1.0" encoding="UTF-8"?>
<svg width="18px" height="20px" viewBox="0 0 18 20" version="1.1" xmlns="http://www.w3.org/2000/svg" xmlns:xlink="http://www.w3.org/1999/xlink">
    <!-- Generator: Sketch 47.1 (45422) - http://www.bohemiancoding.com/sketch -->
    <title>home-active</title>
    <desc>Created with Sketch.</desc>
    <defs></defs>
    <g id="Symbols" stroke="none" stroke-width="1" fill="none" fill-rule="evenodd">
        <g id="Overrides/Tab-Bar/Icons/Active/1" transform="translate(-22.000000, -7.000000)" fill-rule="nonzero" fill="#DD2C35">
            <g id="home-active" transform="translate(22.000000, 7.000000)">
                <path d="M7.12894737,13.9302326 C7.12894737,13.7906977 7.22368421,13.6976744 7.36578947,13.6976744 L10.6342105,13.6976744 C10.7763158,13.6976744 10.8710526,13.7906977 10.8710526,13.9302326 L10.8710526,19.8604651 L16.3421053,19.8604651 C17.2657895,19.8604651 18,19.1395349 18,18.2325581 L18,8.39534884 C18,7.81395349 17.7631579,7.25581395 17.3368421,6.86046512 L10.2552632,0.651162791 C9.56842105,-3.71092046e-14 8.43157895,-3.71092046e-14 7.74473684,0.651162791 L0.686842105,6.8372093 L0.663157895,6.86046512 C0.236842105,7.27906977 0,7.8372093 0,8.39534884 L0,18.2093023 C0,19.1162791 0.734210526,19.8372093 1.65789474,19.8372093 L7.12894737,19.8372093 L7.12894737,13.9302326 Z" id="Shape" fill-opacity="0.2"></path>
                <path d="M7.12894737,13.9302326 C7.12894737,13.7906977 7.22368421,13.6976744 7.36578947,13.6976744 L10.6342105,13.6976744 C10.7763158,13.6976744 10.8710526,13.7906977 10.8710526,13.9302326 L10.8710526,19.8604651 L16.3421053,19.8604651 C17.2657895,19.8604651 18,19.1395349 18,18.2325581 L18,8.39534884 C18,7.81395349 17.7631579,7.25581395 17.3368421,6.86046512 L10.2552632,0.651162791 C9.56842105,-3.71092046e-14 8.43157895,-3.71092046e-14 7.74473684,0.651162791 L0.686842105,6.8372093 L0.663157895,6.86046512 C0.236842105,7.27906977 0,7.8372093 0,8.39534884 L0,18.2093023 C0,19.1162791 0.734210526,19.8372093 1.65789474,19.8372093 L7.12894737,19.8372093 L7.12894737,13.9302326 Z M5.70789474,13.9302326 L5.70789474,18.4651163 L1.65789474,18.4651163 C1.51578947,18.4651163 1.42105263,18.372093 1.42105263,18.2325581 L1.42105263,8.39534884 C1.42105263,8.20930233 1.49210526,8 1.63421053,7.86046512 L8.69210526,1.6744186 L8.71578947,1.65116279 C8.85789474,1.51162791 9.11842105,1.51162791 9.26052632,1.65116279 L16.3421053,7.86046512 C16.4842105,8 16.5552632,8.18604651 16.5552632,8.39534884 L16.5552632,18.2093023 C16.5552632,18.3488372 16.4605263,18.4418605 16.3184211,18.4418605 L12.2921053,18.4418605 L12.2921053,13.9302326 C12.2921053,13.0232558 11.5578947,12.3023256 10.6342105,12.3023256 L7.36578947,12.3023256 C6.44210526,12.3023256 5.70789474,13.0232558 5.70789474,13.9302326 Z" id="Shape"></path>
            </g>
        </g>
    </g>
</svg>