<?xml version="1.0" encoding="UTF-8"?>
<svg width="18px" height="20px" viewBox="0 0 18 20" version="1.1" xmlns="http://www.w3.org/2000/svg" xmlns:xlink="http://www.w3.org/1999/xlink">
    <!-- Generator: Sketch 47.1 (45422) - http://www.bohemiancoding.com/sketch -->
    <title>home</title>
    <desc>Created with Sketch.</desc>
    <defs></defs>
    <g id="Symbols" stroke="none" stroke-width="1" fill="none" fill-rule="evenodd">
        <g id="Overrides/Tab-Bar/Icons/Unselected/1" transform="translate(-22.000000, -7.000000)" fill-rule="nonzero" fill="#000000">
            <path d="M29.1289474,20.9302326 C29.1289474,20.7906977 29.2236842,20.6976744 29.3657895,20.6976744 L32.6342105,20.6976744 C32.7763158,20.6976744 32.8710526,20.7906977 32.8710526,20.9302326 L32.8710526,26.8604651 L38.3421053,26.8604651 C39.2657895,26.8604651 40,26.1395349 40,25.2325581 L40,15.3953488 C40,14.8139535 39.7631579,14.255814 39.3368421,13.8604651 L32.2552632,7.65116279 C31.5684211,7 30.4315789,7 29.7447368,7.65116279 L22.6868421,13.8372093 L22.6631579,13.8604651 C22.2368421,14.2790698 22,14.8372093 22,15.3953488 L22,25.2093023 C22,26.1162791 22.7342105,26.8372093 23.6578947,26.8372093 L29.1289474,26.8372093 L29.1289474,20.9302326 Z M27.7078947,20.9302326 L27.7078947,25.4651163 L23.6578947,25.4651163 C23.5157895,25.4651163 23.4210526,25.372093 23.4210526,25.2325581 L23.4210526,15.3953488 C23.4210526,15.2093023 23.4921053,15 23.6342105,14.8604651 L30.6921053,8.6744186 L30.7157895,8.65116279 C30.8578947,8.51162791 31.1184211,8.51162791 31.2605263,8.65116279 L38.3421053,14.8604651 C38.4842105,15 38.5552632,15.1860465 38.5552632,15.3953488 L38.5552632,25.2093023 C38.5552632,25.3488372 38.4605263,25.4418605 38.3184211,25.4418605 L34.2921053,25.4418605 L34.2921053,20.9302326 C34.2921053,20.0232558 33.5578947,19.3023256 32.6342105,19.3023256 L29.3657895,19.3023256 C28.4421053,19.3023256 27.7078947,20.0232558 27.7078947,20.9302326 Z" id="home"></path>
        </g>
    </g>
</svg>