<?xml version="1.0" encoding="UTF-8"?>
<svg width="18px" height="20px" viewBox="0 0 18 20" version="1.1" xmlns="http://www.w3.org/2000/svg" xmlns:xlink="http://www.w3.org/1999/xlink">
    <!-- Generator: Sketch 49 (51002) - http://www.bohemiancoding.com/sketch -->
    <title>Shape</title>
    <desc>Created with Sketch.</desc>
    <defs></defs>
    <g id="Page-1" stroke="none" stroke-width="1" fill="none" fill-rule="evenodd">
        <g id="Icons/Inactive/Home" transform="translate(-20.000000, -7.000000)" fill="#000000" fill-rule="nonzero">
            <path d="M36.3421053,26 C36.71418,26 37,25.7150424 37,25.3471074 L37,15.3589138 C37,15.0379814 36.8724065,14.736698 36.6718971,14.5473646 L29.5617556,8.21631715 C29.2621279,7.92789428 28.7378721,7.92789428 28.4095326,8.24289291 L21.3928797,14.4850338 C21.1338975,14.7432346 21,15.0547195 21,15.3589138 L21,25.3234947 C21,25.6914297 21.28582,25.9763872 21.6578947,25.9763872 L26,25.9763872 L26,21.2399998 C26,20.5461699 26.5454778,20 27.2399998,20 L30.7599983,20 C31.4545182,20 32,20.5461678 32,21.2399998 L32,26 L36.3421053,26 Z M27,21.2399998 L27,26.9763872 L21.6578947,26.9763872 C20.7342105,26.9763872 20,26.244392 20,25.3234947 L20,15.3589138 C20,14.7922078 20.2368421,14.2255018 20.6868421,13.7768595 L27.7447368,7.49586777 C28.4315789,6.83471074 29.5684211,6.83471074 30.2552632,7.49586777 L37.3368421,13.8004723 C37.7631579,14.201889 38,14.768595 38,15.3589138 L38,25.3471074 C38,26.2680047 37.2657895,27 36.3421053,27 L31,27 L31,21.2399998 C31,21.0983233 30.9021036,21 30.7599983,21 L27.2399998,21 C27.0978945,21 27,21.0983233 27,21.2399998 Z" id="Shape"></path>
        </g>
    </g>
</svg>