<?xml version="1.0" encoding="UTF-8"?>
<svg width="18px" height="21px" viewBox="0 0 18 21" version="1.1" xmlns="http://www.w3.org/2000/svg" xmlns:xlink="http://www.w3.org/1999/xlink">
    <!-- Generator: Sketch 47.1 (45422) - http://www.bohemiancoding.com/sketch -->
    <title>me-active</title>
    <desc>Created with Sketch.</desc>
    <defs></defs>
    <g id="Symbols" stroke="none" stroke-width="1" fill="none" fill-rule="evenodd">
        <g id="Overrides/Tab-Bar/Icons/Active/5" transform="translate(-22.000000, -6.000000)">
            <g id="me-active" transform="translate(23.000000, 7.000000)">
                <path d="M16,19.2 C16,14.4883403 12.6630686,10.6666667 8,10.6666667 C3.33538936,10.6666667 0,14.4883403 0,19.2 L16,19.2 Z" id="Stroke-61" fill-opacity="0.2" fill="#DD2C35"></path>
                <path d="M16,19.2 C16,14.4883403 12.6630686,10.6666667 8,10.6666667 C3.33538936,10.6666667 0,14.4883403 0,19.2 L16,19.2 Z" id="Stroke-61" stroke="#DD2C35" stroke-width="1.5" stroke-linecap="round" stroke-linejoin="round"></path>
                <path d="M11.7333333,3.73358801 C11.7333333,5.79546581 10.0611138,7.46666667 8.00025468,7.46666667 C5.93786752,7.46666667 4.26666667,5.79546581 4.26666667,3.73358801 C4.26666667,1.67171021 5.93786752,0 8.00025468,0 C10.0611138,0 11.7333333,1.67171021 11.7333333,3.73358801 Z" id="Stroke-63" fill-opacity="0.2" fill="#DD2C35"></path>
                <path d="M11.7333333,3.73358801 C11.7333333,5.79546581 10.0611138,7.46666667 8.00025468,7.46666667 C5.93786752,7.46666667 4.26666667,5.79546581 4.26666667,3.73358801 C4.26666667,1.67171021 5.93786752,0 8.00025468,0 C10.0611138,0 11.7333333,1.67171021 11.7333333,3.73358801 Z" id="Stroke-63" stroke="#DD2C35" stroke-width="1.5" stroke-linecap="round" stroke-linejoin="round"></path>
            </g>
        </g>
    </g>
</svg>