<?xml version="1.0" encoding="UTF-8"?>
<svg width="18px" height="20px" viewBox="0 0 18 20" version="1.1" xmlns="http://www.w3.org/2000/svg" xmlns:xlink="http://www.w3.org/1999/xlink">
    <!-- Generator: Sketch 49 (51002) - http://www.bohemiancoding.com/sketch -->
    <title>Stroke 63</title>
    <desc>Created with Sketch.</desc>
    <defs></defs>
    <g id="Page-1" stroke="none" stroke-width="1" fill="none" fill-rule="evenodd">
        <g id="Icons/Inactive/Me" transform="translate(-20.000000, -7.000000)" fill="#000000" fill-rule="nonzero">
            <path d="M32,11.0002729 C32,9.3436757 30.6563243,8 29.0002729,8 C27.3430667,8 26,9.34319324 26,11.0002729 C26,12.6572062 27.3429204,14 29.0002729,14 C30.6564706,14 32,12.6567238 32,11.0002729 Z M33,11.0002729 C33,13.2094277 31.2083362,15 29.0002729,15 C26.7905723,15 25,13.2094277 25,11.0002729 C25,8.79111808 26.7905723,7 29.0002729,7 C31.2083362,7 33,8.79111808 33,11.0002729 Z M37,26 C37,21.5828191 33.6630686,18 29,18 C24.3353894,18 21,21.5828191 21,26 L37,26 Z M38,26 C38,26.5522847 37.5522847,27 37,27 L21,27 C20.4477153,27 20,26.5522847 20,26 C20,20.9479973 23.863661,17 29,17 C34.1352983,17 38,20.9485235 38,26 Z" id="Stroke-63"></path>
        </g>
    </g>
</svg>