<?xml version="1.0" encoding="UTF-8"?>
<svg width="141px" height="27px" viewBox="0 0 141 27" version="1.1" xmlns="http://www.w3.org/2000/svg" xmlns:xlink="http://www.w3.org/1999/xlink">
    <!-- Generator: Sketch 47.1 (45422) - http://www.bohemiancoding.com/sketch -->
    <title>Medibank Logo</title>
    <desc>Created with Sketch.</desc>
    <defs></defs>
    <g id="Flows" stroke="none" stroke-width="1" fill="none" fill-rule="evenodd">
        <g id="Log-in---Consolidated" transform="translate(-117.000000, -82.000000)">
            <g id="Medibank-Logo" transform="translate(117.000000, 82.000000)">
                <g id="MB_Logo_FBH_CMYK_White-Box">
                    <path d="M39.022406,21.6578594 L40.7975767,24.492434 C38.7906529,26.1869786 36.6846812,27 34.2358881,27 C29.2277142,27 26,23.3204032 26,17.6192531 C26,14.3696676 26.6476584,12.2091108 28.1761708,10.4440643 C29.6051543,8.77652043 31.3341667,8 33.6555438,8 C35.6605443,8 37.5669776,8.70551857 38.6896817,9.90455012 C40.2831041,11.6060949 41,14.0501592 41,17.8392589 C41,18.2277692 41,18.3667728 41,18.9382878 L30.9293201,18.9382878 L30.9293201,19.0772915 C30.9293201,21.870365 32.2491586,23.464407 34.6065968,23.464407 C36.174536,23.464407 37.6333301,22.858891 39.022406,21.6578594 Z M31.0004808,15.4636964 L36.2755073,15.4636964 L36.2755073,15.2491908 C36.2755073,13.9061554 36.1346283,13.1981368 35.7268968,12.5291192 C35.2855082,11.8211006 34.6397731,11.4670912 33.7190114,11.4670912 C31.9885566,11.4670912 31.0004808,12.8806284 31.0004808,15.3981947 L31.0004808,15.4636964 L31.0004808,15.4636964 Z" id="Fill-2" fill="#132A4B"></path>
                    <path d="M125,27 L129.593355,27 L129.593355,1 L125,1 L125,27 Z M134.186709,8.7267825 L139.700478,8.7267825 L134.264661,16.5394963 L141,26.9994975 L135.584519,26.9994975 L129.695031,16.6917606 L134.186709,8.7267825 L134.186709,8.7267825 Z" id="Fill-3" fill="#132A4B"></path>
                    <path d="M100.81947,17.4365073 L100.61397,17.4365073 C97.2773747,17.4365073 96.1258647,18.0355727 96.1258647,20.183928 C96.1258647,21.5940511 97.0232833,22.5462708 98.2512232,22.5462708 C99.1385186,22.5462708 100.038468,22.0908614 100.747596,21.3092332 L100.81947,17.4365073 Z M101.313481,24.2003098 C101.034587,24.5823948 100.838704,24.8746948 99.8552387,25.3550445 C99.3586975,25.6004568 98.3210731,26 97.1417243,26 C93.0610764,26 91,24.0880785 91,20.4832113 C91,16.2503479 93.9787414,14.2631068 99.8233508,14.2631068 C100.182217,14.2631068 100.389742,14.2631068 100.898937,14.3089969 L100.898937,13.5712636 C100.898937,11.5496049 100.500084,10.8822031 98.7487768,10.8822031 C97.2034756,10.8822031 95.4121815,11.6274186 93.4417074,12.9307973 L91.4054328,9.53792234 C92.5771891,8.80018902 93.0838536,8.55627314 94.3684832,8.05946287 C96.1628142,7.31873671 97.7126708,7 99.38603,7 C102.472583,7 104.578708,8.12730041 105.297958,10.1419758 C105.547495,10.8822031 105.623924,11.4498438 105.623924,13.3911948 L105.510039,19.46066 C105.510039,19.5654092 105.515607,21.784096 105.515607,21.7451892 C105.515607,23.243102 105.586975,24.7918931 106,25.5450894 L101.77864,25.5450894 C101.518981,25.2303431 101.313481,24.2003098 101.313481,24.2003098 L101.313481,24.2003098 Z" id="Fill-4" fill="#132A4B"></path>
                    <path d="M19.3614976,27 L19.3614976,14.6823916 C19.3614976,12.4573386 19.1090311,12.0135679 17.8547938,12.0135679 C16.9673666,12.0135679 15.7171768,12.6366034 14.6815077,13.5856218 L14.6815077,27 L10.1436883,27 L10.1436883,14.8564903 C10.1436883,12.5229485 9.82494308,11.970689 8.5008854,11.970689 C7.60384518,11.970689 6.39362509,12.4573386 5.35795598,13.3986079 L5.35795598,27 L0.678977991,27 L0.678977991,13.983414 C0.678977991,11.2820436 0.496837845,10.1139812 0,9.20577519 L4.31823931,8 C4.63951429,8.51506335 4.78067291,8.95108489 4.96837845,9.90216978 C6.21603845,8.65609875 7.75259297,8 9.42727043,8 C10.9289147,8 12.1791045,8.51506335 13.1479889,9.52865844 C13.394384,9.78128229 13.642297,10.1139812 13.8537819,10.4471967 C15.5436377,8.70156072 17.0432583,8 19.0371869,8 C20.4649633,8 21.8219074,8.44428735 22.6440678,9.17581163 C23.6746775,10.0814346 24,11.1683887 24,13.7261406 L24,27 L19.3614976,27" id="Fill-5" fill="#132A4B"></path>
                    <path d="M65.3303765,11.6775719 C65.3303765,10.9648539 64.9773102,10.5287432 64.5482937,10.5287432 C63.5357941,10.5287432 62.7244602,11.9531697 61.5184927,14.8373558 L60,14.2064086 C61.7022103,9.85842478 63.5357941,7.76367987 66.3049008,7.76367987 C68.8682233,7.76367987 70.4169935,9.62472192 70.4169935,12.8627433 C70.4169935,14.1226188 70.1537334,15.5026266 69.7154796,17.129461 L68.8302482,20.520424 C68.5151571,21.6248341 68.4402331,22.4183134 68.4402331,22.8473575 C68.4402331,23.7170552 68.8302482,24.190518 69.4517063,24.190518 C70.5422089,24.190518 71.5121147,22.6499972 72.5595103,19.613879 L74,20.3235685 C72.7889007,24.7896656 70.7305451,27 67.7356402,27 C64.9444668,27 63.2253217,25.1793386 63.2253217,22.0609448 C63.2253217,20.3654633 63.7338807,18.5170402 64.2757963,16.2986297 L64.9773102,13.4962143 C65.1728309,12.7052588 65.3303765,12.1061113 65.3303765,11.6775719 Z M67.0161651,0 C68.7630219,0 70.0782963,1.33306538 70.0782963,3.04368959 C70.0782963,4.72200931 68.7255599,6.09242676 67.0161651,6.09242676 C65.3149811,6.09242676 63.9217037,4.72200931 63.9217037,3.04368959 C63.9217037,1.36284609 65.3149811,0 67.0161651,0 L67.0161651,0 Z" id="Fill-6" fill="#8994A5"></path>
                    <path d="M107,9.24102467 L111.280342,8.03763806 C111.504462,8.37534938 111.920614,9.42509023 111.920614,10.1855852 C113.02517,9.38487422 113.233245,9.23638436 114.018919,8.79555507 C114.968546,8.28718352 116.212989,8 117.287462,8 C119.30705,8 121.081459,9.09047244 121.652539,10.6939567 C121.897216,11.3863939 122,12.1943231 122,13.3574937 L122,27 L117.322058,27 L117.322058,14.8557977 C117.322058,12.7429106 116.962563,12.1211093 115.726142,12.1211093 C114.760471,12.1211093 113.52405,12.7810643 112.422502,13.7952294 L112.422502,27 L107.663837,27 L107.663837,13.4709234 C107.663837,10.5681528 107.22763,9.659168 107,9.24102467" id="Fill-7" fill="#132A4B"></path>
                    <path d="M54.4394427,26.5418676 C54.2415535,26.1449512 54.1261986,25.4380055 54.1261986,25.4380055 C53.1338567,26.2673831 51.5739108,27 50.2446747,27 C45.8114744,27 43,23.4692211 43,17.9193028 C43,12.3269282 46.0455628,8.47970227 50.4826244,8.47970227 C51.7476672,8.47970227 52.7356651,8.79763035 53.5836926,9.49470246 L53.5836926,1 L58,1 L58,26.5418676 L54.4394427,26.5418676 Z M53.5252912,13.3754984 C52.6762983,12.6063494 51.851921,12.2207876 51.0314049,12.2207876 C48.976736,12.2207876 48.0900959,13.970873 48.0900959,17.9558349 C48.0900959,21.7956556 48.8777914,23.0491019 51.2674239,23.0491019 C52.1226913,23.0491019 53.0797992,22.4537273 53.5252912,21.9017962 L53.5252912,13.3754984 L53.5252912,13.3754984 Z" id="Fill-8" fill="#132A4B"></path>
                    <path d="M78.4481039,1 L78.4481039,9.66793801 C79.3330242,8.69233023 80.6654409,8.23724489 82.1081729,8.23724489 C86.35675,8.23724489 89,11.7425917 89,17.3558066 C89,21.0059083 87.9184306,23.8504395 85.7754365,25.6003864 C84.5931445,26.5809515 83.4007802,27.0092671 81.9719575,26.9998481 C80.3344951,26.9968737 79.1287012,26.5224547 78.1425785,25.3946561 C78.1425785,25.3946561 78.067756,26.002428 77.8480847,26.6483716 L74.0043167,26.6483716 L74,20.091276 L74,1 L78.4481039,1 Z M83.6348404,14.4076666 C83.3043742,12.865433 82.3470295,12.1297613 81.1589819,12.1297613 C79.9762103,12.1297613 79.1546013,12.8971601 78.5881563,13.5629331 L78.5881563,21.8461802 C79.1881755,22.4098317 79.9085822,23.0032272 81.1311633,23.0032272 C82.2501439,23.0032272 82.9695914,22.5431846 83.3374688,21.6017825 C83.7456354,20.6137814 83.8338876,19.6649433 83.8338876,17.4574324 C83.8338876,15.8477787 83.8075078,15.1795271 83.6348404,14.4076666 L83.6348404,14.4076666 Z" id="Fill-9" fill="#132A4B"></path>
                </g>
            </g>
        </g>
    </g>
</svg>