<?xml version="1.0" encoding="UTF-8"?>
<svg width="56px" height="70px" viewBox="0 0 56 70" version="1.1" xmlns="http://www.w3.org/2000/svg" xmlns:xlink="http://www.w3.org/1999/xlink">
    <!-- Generator: Sketch 47 (45396) - http://www.bohemiancoding.com/sketch -->
    <title>Mind</title>
    <desc>Created with Sketch.</desc>
    <defs></defs>
    <g id="Prototype---Round-1-UX" stroke="none" stroke-width="1" fill="none" fill-rule="evenodd">
        <g id="Value-Prop-4" transform="translate(-160.000000, -185.000000)" fill-rule="nonzero" fill="#FFFFFF">
            <g id="Feel-Icon" transform="translate(124.000000, 156.000000)">
                <g id="Mind" transform="translate(36.000000, 29.000000)">
                    <path d="M54.8680851,18.5677966 C54.8680851,18.5677966 54.6893617,17.7966102 54.6297872,17.559322 C54.6297872,17.440678 54.5702128,17.3813559 54.5106383,17.2627119 C54.4510638,17.1440678 54.3319149,16.6694915 54.2723404,16.5508475 C54.2723404,16.4915254 54.2723404,16.4322034 54.212766,16.3728814 C53.6765957,14.5932203 52.7829787,13.1101695 52.1276596,11.9237288 C46.1106383,2.01694915 33.8382979,-1.00847458 24.9617021,0.355932203 C16.9191489,1.54237288 10.8425532,5.57627119 7.44680851,11.8644068 C7.44680851,11.8644068 7.44680851,11.9237288 7.38723404,11.9237288 C6.55319149,13.6440678 6.01702128,15.0677966 5.71914894,16.3728814 L5.48085106,17.2627119 C5.4212766,17.3813559 5.4212766,17.5 5.4212766,17.6186441 L5.24255319,18.5677966 C4.94468085,20.4067797 4.88510638,22.3644068 5.18297872,24.440678 L5.18297872,24.9745763 C5.18297872,25.4491525 5.06382979,25.9237288 4.82553191,26.3983051 L0.595744681,35.5338983 C0.0595744681,36.720339 0.119148936,38.1440678 0.834042553,39.3305085 C1.54893617,40.5169492 2.8,41.2288136 4.22978723,41.2288136 L5.71914894,41.2288136 L4.88510638,45.0254237 C4.64680851,46.0932203 4.70638298,47.220339 5.12340426,48.2288136 L5.30212766,48.6440678 C5.83829787,50.0677966 5.95744681,51.6101695 5.65957447,53.0338983 C5.48085106,54.1610169 5.71914894,55.2881356 6.37446809,56.2372881 C7.02978723,57.1864407 8.04255319,57.779661 9.17446809,57.9576271 L15.1914894,58.8474576 L15.1914894,68.5169492 C15.1914894,69.3474576 15.8468085,70 16.6808511,70 C17.5148936,70 18.1702128,69.3474576 18.1702128,68.5169492 L18.1702128,57.6016949 C18.1702128,56.8898305 17.6340426,56.2372881 16.9191489,56.1186441 L9.53191489,55.0508475 C9.23404255,54.9915254 8.93617021,54.8135593 8.75744681,54.5762712 C8.5787234,54.279661 8.45957447,53.9830508 8.51914894,53.6271186 C8.87659574,51.6101695 8.69787234,49.5932203 7.98297872,47.6949153 L7.80425532,47.279661 C7.62553191,46.8050847 7.56595745,46.2711864 7.68510638,45.7372881 L8.87659574,40.1610169 C8.99574468,39.7457627 8.87659574,39.2711864 8.5787234,38.9152542 C8.28085106,38.559322 7.86382979,38.3813559 7.44680851,38.3813559 L4.17021277,38.3813559 C3.81276596,38.3813559 3.51489362,38.2033898 3.33617021,37.9067797 C3.09787234,37.5508475 3.09787234,37.1949153 3.21702128,36.8983051 L7.50638298,27.8220339 C7.92340426,26.9322034 8.10212766,26.0423729 8.10212766,25.1525424 L8.10212766,24.5 C8.10212766,24.440678 8.10212766,24.3813559 8.10212766,24.3220339 C7.86382979,22.4830508 7.86382979,20.7627119 8.16170213,19.220339 L8.34042553,18.1525424 C8.34042553,18.0932203 8.34042553,18.0338983 8.34042553,17.9745763 L8.51914894,17.2627119 C8.81702128,16.1355932 9.29361702,14.8898305 10.0085106,13.4067797 C12.9276596,7.94915254 18.2297872,4.50847458 25.3787234,3.44067797 C33.3021277,2.19491525 44.2042553,4.86440678 49.506383,13.5847458 C50.1021277,14.5932203 50.8170213,15.8983051 51.293617,17.3813559 C51.3531915,17.7966102 51.5319149,18.2711864 51.6510638,18.5677966 C51.7106383,18.8644068 51.8893617,19.4576271 51.8893617,19.5169492 C54.0340426,27.6440678 52.0085106,34.940678 45.7531915,41.1694915 L45.5148936,41.4067797 C44.7404255,42.1779661 43.3702128,43.5423729 42.3574468,45.7372881 C40.6893617,49.5932203 40.987234,54.1610169 43.1319149,59.3220339 C43.4297872,60.0932203 44.3234043,60.4491525 45.0978723,60.1525424 C45.8723404,59.8559322 46.2297872,58.9661017 45.9319149,58.1949153 C44.0851064,53.7457627 43.8468085,49.9491525 45.1574468,46.9237288 C45.9319149,45.2033898 46.9446809,44.1949153 47.6595745,43.4830508 L47.8978723,43.2457627 C54.987234,36.0084746 57.3106383,27.7627119 54.8680851,18.5677966 Z" id="Shape"></path>
                    <path d="M33.3617021,15.1864407 C32.587234,14.5338983 31.693617,14.059322 30.7404255,13.7627119 C30.0851064,13.5847458 29.4297872,13.940678 29.2510638,14.5338983 C29.0723404,15.1864407 29.4297872,15.8389831 30.0255319,16.0169492 C30.6808511,16.1949153 31.2765957,16.5508475 31.812766,16.9661017 C32.3489362,17.3813559 32.7659574,17.9152542 33.1234043,18.5677966 C33.3617021,18.9830508 33.7787234,19.220339 34.1957447,19.220339 C34.3744681,19.220339 34.5531915,19.1610169 34.7319149,19.1016949 C35.3276596,18.8050847 35.5659574,18.0932203 35.2680851,17.5 C34.7914894,16.6101695 34.1957447,15.8389831 33.3617021,15.1864407 Z" id="Shape"></path>
                    <path d="M45.9914894,31.0847458 C46.706383,30.2542373 47.2425532,29.3050847 47.6,28.2372881 C47.9574468,27.1694915 48.0765957,26.1016949 47.9574468,24.9745763 C47.8382979,23.9067797 47.5404255,22.8983051 47.0638298,21.9491525 C47.0042553,21.8305085 46.8851064,21.7118644 46.8255319,21.5338983 C47.1829787,20.5847458 47.3617021,19.5762712 47.3617021,18.5084746 C47.3617021,17.3813559 47.1234043,16.3135593 46.706383,15.2457627 C46.2893617,14.2372881 45.693617,13.3474576 44.9787234,12.5762712 C44.2042553,11.8050847 43.3702128,11.2118644 42.3574468,10.7966102 C42,10.6186441 41.6425532,10.5 41.2851064,10.440678 C41.0468085,9.90677966 40.7489362,9.37288136 40.3319149,8.95762712 C39.9148936,8.54237288 39.3787234,8.18644068 38.8425532,7.94915254 C38.306383,7.71186441 37.7106383,7.59322034 37.0553191,7.53389831 C36.4,7.53389831 35.8042553,7.59322034 35.2085106,7.83050847 C35.0893617,7.88983051 35.0297872,7.88983051 34.9702128,7.94915254 C34.3744681,7.3559322 33.6595745,6.88135593 32.9446809,6.52542373 C32.1106383,6.11016949 31.2170213,5.87288136 30.2638298,5.75423729 C29.3106383,5.63559322 28.3574468,5.69491525 27.4638298,5.93220339 C26.5702128,6.16949153 25.7361702,6.52542373 24.9617021,7 C24.4851064,7.29661017 24.0680851,7.65254237 23.6510638,8.06779661 C22.9957447,8.06779661 22.4,8.18644068 21.8042553,8.42372881 C21.2680851,8.66101695 20.7914894,8.95762712 20.3744681,9.37288136 C20.1361702,9.61016949 19.9574468,9.84745763 19.7787234,10.0847458 C18.7659574,10.1440678 17.812766,10.3220339 16.8595745,10.7372881 C15.906383,11.1525424 15.012766,11.7457627 14.2382979,12.5169492 C13.4638298,13.2881356 12.9276596,14.1779661 12.5106383,15.1864407 C12.093617,16.1949153 11.8553191,17.3220339 11.8553191,18.4491525 C11.8553191,19.5762712 12.093617,20.6440678 12.5106383,21.7118644 C12.9276596,22.720339 13.5234043,23.6101695 14.2382979,24.3813559 C15.012766,25.1525424 15.8468085,25.7457627 16.8595745,26.1610169 C17.8723404,26.5762712 18.9446809,26.8135593 20.0765957,26.8135593 L22.4595745,26.8135593 C22.4595745,26.8728814 22.5191489,26.9322034 22.5191489,26.9915254 C22.8765957,27.8813559 23.412766,28.7118644 24.1276596,29.3644068 C24.8425532,30.0762712 25.6170213,30.6101695 26.5106383,30.9661017 C27.4042553,31.3220339 28.3574468,31.559322 29.4297872,31.559322 L30.7404255,31.6779661 C32.587234,31.8559322 34.493617,32.3898305 36.7574468,33.279661 C36.9361702,33.3389831 37.1148936,33.3983051 37.293617,33.4576271 C38.1276596,33.6949153 38.9617021,33.8728814 39.7957447,33.8728814 C40.0340426,33.8728814 40.2723404,33.8728814 40.5702128,33.8135593 C41.6425532,33.6949153 42.6553191,33.3983051 43.6085106,32.9237288 C44.5021277,32.5677966 45.3361702,31.9152542 45.9914894,31.0847458 Z M37.9489362,31.3220339 C37.8297872,31.2627119 37.7106383,31.2627119 37.5914894,31.2033898 C35.1489362,30.2542373 33.0042553,29.6610169 30.9787234,29.4830508 L29.6085106,29.3644068 C29.5489362,29.3644068 29.4893617,29.3644068 29.4297872,29.3644068 C28.7148936,29.3644068 28.0595745,29.2457627 27.4042553,28.9491525 C26.8085106,28.7118644 26.212766,28.2966102 25.7957447,27.8813559 C25.3191489,27.4067797 24.9617021,26.8728814 24.6638298,26.279661 C24.4255319,25.6271186 24.2468085,24.9745763 24.2468085,24.2627119 C24.2468085,23.5508475 24.3659574,22.8983051 24.6638298,22.2457627 C24.7234043,22.0677966 24.7829787,21.8898305 24.7234043,21.7118644 C24.7234043,21.2966102 24.4255319,20.8813559 24.0085106,20.7033898 C23.412766,20.4661017 22.6978723,20.7033898 22.4595745,21.3559322 C22.4,21.5338983 22.2808511,21.7711864 22.2212766,21.9491525 C21.9829787,22.720339 21.8638298,23.4915254 21.8638298,24.2627119 C21.8638298,24.3813559 21.8638298,24.5 21.8638298,24.6186441 L20.0170213,24.6186441 C19.2425532,24.6186441 18.4680851,24.440678 17.7531915,24.1440678 C17.0382979,23.8474576 16.4425532,23.4322034 15.906383,22.8389831 C15.3702128,22.3050847 14.9531915,21.6525424 14.6553191,20.940678 C14.3574468,20.1694915 14.1787234,19.3983051 14.1787234,18.5677966 C14.1787234,17.7372881 14.3574468,16.9661017 14.6553191,16.1949153 C14.9531915,15.4830508 15.3702128,14.8305085 15.906383,14.2966102 C16.4425532,13.7627119 17.0382979,13.2881356 17.7531915,12.9915254 C18.1702128,12.8135593 18.5276596,12.6949153 18.9446809,12.6355932 C18.9446809,12.6355932 18.9446809,12.6949153 18.9446809,12.6949153 C18.9446809,13.3474576 19.4808511,13.8813559 20.1361702,13.8813559 C20.2553191,13.8813559 20.3744681,13.8813559 20.5531915,13.8220339 C21.0297872,13.6440678 21.3276596,13.2288136 21.3276596,12.6949153 C21.3276596,12.6355932 21.3276596,12.5169492 21.3276596,12.4576271 C21.3276596,12.220339 21.387234,12.0423729 21.4468085,11.8644068 C21.5659574,11.6271186 21.7446809,11.3898305 21.9234043,11.1525424 C22.1021277,10.9745763 22.3404255,10.7966102 22.6382979,10.6779661 C23.1744681,10.440678 23.8297872,10.440678 24.3659574,10.6779661 C24.6042553,10.7966102 24.8425532,10.9745763 25.0808511,11.1525424 C25.2,11.2711864 25.3191489,11.4491525 25.4382979,11.6271186 C25.4978723,11.6864407 25.4978723,11.7457627 25.5574468,11.8644068 C25.7957447,12.4576271 26.5106383,12.7542373 27.106383,12.5169492 C27.7021277,12.279661 28,11.5677966 27.7617021,10.9745763 C27.6425532,10.6186441 27.4042553,10.3220339 27.2255319,10.0254237 C27.106383,9.84745763 26.9276596,9.66949153 26.8085106,9.49152542 C26.6297872,9.31355932 26.4510638,9.19491525 26.2723404,9.07627119 C26.8085106,8.72033898 27.4042553,8.48305085 28,8.30508475 C28.6553191,8.12711864 29.3106383,8.12711864 29.9659574,8.18644068 C30.6212766,8.24576271 31.2765957,8.42372881 31.8723404,8.72033898 C32.4680851,9.01694915 32.9446809,9.37288136 33.4212766,9.84745763 C33.7191489,10.1440678 33.8978723,10.440678 34.1361702,10.7372881 C34.2553191,10.9745763 34.4340426,11.1525424 34.5531915,11.3898305 C34.7319149,11.8050847 35.2085106,12.0423729 35.6255319,12.0423729 C35.8042553,12.0423729 35.9829787,11.9830508 36.1617021,11.9237288 C36.7574468,11.6271186 36.9957447,10.9152542 36.6978723,10.3220339 C36.6382979,10.2033898 36.5787234,10.0847458 36.4595745,9.90677966 C36.6382979,9.84745763 36.8170213,9.84745763 36.9957447,9.84745763 C36.9957447,9.84745763 36.9957447,9.84745763 36.9957447,9.84745763 C37.293617,9.84745763 37.5914894,9.90677966 37.8893617,10.0254237 C38.187234,10.1440678 38.4255319,10.3220339 38.6042553,10.559322 C38.8425532,10.7966102 38.9617021,11.0338983 39.0808511,11.3305085 C39.0808511,11.3305085 39.0808511,11.3305085 39.0808511,11.3305085 C39.2,11.6271186 39.2595745,11.9237288 39.2595745,12.220339 C39.2595745,12.8728814 39.7361702,13.4067797 40.3914894,13.4661017 C40.3914894,13.4661017 40.3914894,13.4661017 40.4510638,13.4661017 C40.6297872,13.4661017 40.8085106,13.4067797 40.987234,13.3474576 C41.1659574,13.2288136 41.3446809,13.1101695 41.4638298,12.9322034 C42.1191489,13.2288136 42.7744681,13.6440678 43.3106383,14.1779661 C43.8468085,14.7118644 44.2638298,15.3644068 44.5617021,16.0762712 C44.8595745,16.8474576 45.0382979,17.6186441 45.0382979,18.4491525 C45.0382979,18.7457627 45.0382979,18.9830508 44.9787234,19.279661 C44.5021277,18.9830508 43.8468085,19.0423729 43.4297872,19.5169492 C43.2510638,19.7542373 43.1319149,19.9915254 43.1319149,20.2881356 C43.1319149,20.2881356 43.1319149,20.3474576 43.1319149,20.3474576 C43.1319149,20.6440678 43.3106383,20.940678 43.5489362,21.1779661 C44.1446809,21.6525424 44.6212766,22.2457627 44.9787234,22.9576271 C45.3361702,23.6101695 45.5148936,24.3813559 45.6340426,25.0932203 C45.693617,25.8644068 45.6340426,26.6355932 45.3957447,27.4067797 C45.1574468,28.1779661 44.7404255,28.8305085 44.2638298,29.4237288 C43.787234,30.0169492 43.1914894,30.4915254 42.4765957,30.8474576 C41.8212766,31.2033898 41.0468085,31.3813559 40.3319149,31.5 C39.4978723,31.6186441 38.7234043,31.559322 37.9489362,31.3220339 Z" id="Shape"></path>
                    <path d="M38.4255319,22.4830508 C36.6382979,23.0169492 35.387234,24.5 35.0893617,26.3389831 L35.0893617,26.4576271 C35.0297872,27.1101695 35.4468085,27.7033898 36.1021277,27.7627119 C36.1617021,27.7627119 36.2212766,27.7627119 36.2808511,27.7627119 C36.8765957,27.7627119 37.3531915,27.3474576 37.4723404,26.7542373 L37.4723404,26.6355932 C37.5914894,25.7457627 38.2468085,24.9745763 39.0808511,24.7372881 C39.7361702,24.559322 40.093617,23.9067797 39.8553191,23.2542373 C39.7361702,22.6610169 39.0808511,22.3050847 38.4255319,22.4830508 Z" id="Shape"></path>
                </g>
            </g>
        </g>
    </g>
</svg>