<?xml version="1.0" encoding="UTF-8"?>
<svg width="47px" height="74px" viewBox="0 0 47 74" version="1.1" xmlns="http://www.w3.org/2000/svg" xmlns:xlink="http://www.w3.org/1999/xlink">
    <!-- Generator: Sketch 47 (45396) - http://www.bohemiancoding.com/sketch -->
    <title>Move</title>
    <desc>Created with Sketch.</desc>
    <defs></defs>
    <g id="Prototype---Round-1-UX" stroke="none" stroke-width="1" fill="none" fill-rule="evenodd">
        <g id="Value-Prop-2" transform="translate(-164.000000, -183.000000)" fill-rule="nonzero" fill="#FFFFFF">
            <g id="Move-Icon" transform="translate(124.000000, 156.000000)">
                <g id="Move" transform="translate(40.000000, 27.000000)">
                    <path d="M27.67,16.73 C23.2596839,16.6969217 19.7080887,13.1006851 19.7300996,8.69029979 C19.7521106,4.27991453 23.3394236,0.719306134 27.7498502,0.73024963 C32.1602768,0.741193126 35.729876,4.31955982 35.73,8.73 C35.73006,10.8621686 34.8789739,12.9061458 33.365681,14.4081736 C31.852388,15.9102013 29.8021087,16.7459913 27.67,16.73 Z M27.67,3.25 C24.647369,3.28854307 22.2245832,5.7633041 22.2501971,8.78607234 C22.275811,11.8088406 24.7401863,14.2421896 27.7630364,14.2295054 C30.7858865,14.2168212 33.2297543,11.7628767 33.23,8.74 C33.2079815,5.68976108 30.7202731,3.23337269 27.67,3.25 L27.67,3.25 Z" id="Shape"></path>
                    <path d="M37,73.16 C35,73.16 33.46,71.66 32.21,70.06 C30.96,68.46 24.78,58.85 19,49.94 C17.49,47.6 16.38,45.94 16.12,45.49 C15,43.81 13.3,41.26 14,37.9 C14.24,36.66 14.86,33.56 15.57,30.2 L12.78,32.32 C12.41,34.42 11.01,42.48 10.78,43.53 C10.3191812,45.4447228 8.41565821,46.6427442 6.49,46.23 C5.47457002,46.0510649 4.57761391,45.4619269 4.01004964,44.6011211 C3.44248537,43.7403153 3.25439221,42.6837952 3.49,41.68 L5.49,28.68 C5.80300676,27.5704215 6.51538198,26.6158387 7.49,26 L16.6,18.36 L17.12,18.05 C18.1539304,17.3279772 19.3890748,16.950086 20.65,16.97 L24,16.97 C27.08,16.97 28.45,18.73 29.9,21.97 C31.26,24.97 33.73,30.24 34.43,31.72 C36.15,32.56 42.97,35.91 44.1,36.42 L44.1,36.42 C45.1658569,36.9403732 45.974405,37.8716475 46.34,39 C46.6573987,39.9420532 46.5592308,40.9746334 46.07,41.84 C45.07,43.62 42.76,43.98 40.07,42.84 C38.24,42.02 32.2,39.3 30.92,38.61 C30.0097596,38.2345143 29.2207982,37.6151104 28.64,36.82 L27.9,35.72 L26.4,42 C28.4,45.16 39.62,63.29 40.66,65.06 C41.6014894,66.5003754 41.9324099,68.2556928 41.58,69.94 C41.2855178,71.0079523 40.5613241,71.9059524 39.58,72.42 C38.7968514,72.8818895 37.9089085,73.1365708 37,73.16 Z M19.38,24.16 L18.66,27.48 C17.66,31.9 16.66,36.79 16.39,38.48 C15.93,40.83 17.13,42.62 18.2,44.21 C18.47,44.61 19.58,46.33 21.11,48.69 C25.26,55 33,66.9 34.21,68.52 C36.08,70.92 37.01,70.99 38.4,70.22 C38.7764025,70.030141 39.0531759,69.687816 39.16,69.28 C39.3186982,68.2486612 39.0830507,67.1953882 38.5,66.33 C37.4,64.45 24.13,43.1 24,42.88 L23.73,42.44 L26.73,29.62 L28.34,31.89 C28.4,31.98 29.92,34.12 30.72,35.37 C30.91,35.66 31.1,35.79 32.1,36.37 C33.1,36.95 37.37,38.86 41.1,40.52 C42.21,41.01 43.57,41.25 43.93,40.61 C44.0759659,40.3539926 44.1015789,40.0466361 44,39.77 C43.8343076,39.2777501 43.4723523,38.8759797 43,38.66 C41.64,38.05 33.21,33.91 32.86,33.73 L32.47,33.54 L32.28,33.15 C32.28,33.08 29.14,26.53 27.55,22.96 C26.04,19.6 25.23,19.43 23.93,19.43 L20.64,19.43 C19.8380056,19.4093782 19.0524414,19.6594905 18.41,20.14 L17.92,20.43 L8.83,28.06 C8.34554998,28.3387518 7.98733867,28.7936802 7.83,29.33 L5.92,42 C5.74,43.31 6.32,43.62 6.98,43.75 C7.28,43.82 8.16,43.75 8.32,42.99 C8.55,41.85 10.32,31.48 10.37,31.37 L10.45,30.89 L19.38,24.16 Z" id="Shape"></path>
                    <path d="M5,73 C4.07036553,72.9790388 3.17935779,72.6240557 2.49,72 C1.02,70.78 -0.14,68.57 2.63,65 C4.17,63 9.39,56.31 10.27,55.18 L14.27,43.66 L20.95,53.82 L20.69,54.44 C20,55.9 19,58.26 18.72,58.83 C18.2053389,59.9233911 17.5313375,60.9343932 16.72,61.83 C16.19,62.42 15.08,63.76 13.91,65.18 C12.1,67.36 10.23,69.62 9.51,70.34 L9.39,70.47 C8.58,71.3 6.95,73 5,73 Z M15,49.22 L12.56,56.32 L12.43,56.48 C12.43,56.48 6.35,64.28 4.66,66.48 C2.78,68.92 3.66,69.63 4.14,70.05 C5.09,70.84 5.88,70.54 7.67,68.71 L7.8,68.58 C8.44,67.94 10.44,65.53 12.04,63.58 C13.23,62.15 14.35,60.79 14.91,60.17 C15.5512509,59.4553038 16.0836406,58.6499801 16.49,57.78 C16.7,57.31 17.49,55.47 18.13,54.01 L15,49.22 Z" id="Shape"></path>
                </g>
            </g>
        </g>
    </g>
</svg>