<?xml version="1.0" encoding="UTF-8"?>
<svg width="20px" height="20px" viewBox="0 0 20 20" version="1.1" xmlns="http://www.w3.org/2000/svg" xmlns:xlink="http://www.w3.org/1999/xlink">
    <!-- Generator: Sketch 47.1 (45422) - http://www.bohemiancoding.com/sketch -->
    <title>notifications-active</title>
    <desc>Created with Sketch.</desc>
    <defs></defs>
    <g id="Symbols" stroke="none" stroke-width="1" fill="none" fill-rule="evenodd">
        <g id="Overrides/Tab-Bar/Icons/Active/4" transform="translate(-21.000000, -7.000000)" fill-rule="nonzero">
            <g id="notifications-active" transform="translate(21.000000, 7.000000)">
                <path d="M11.7402597,19.6846255 C11.8961039,19.868594 12.1038961,20 12.3636364,20 C12.3636364,20 12.3636364,20 12.3636364,20 C12.6233766,20 12.8831169,19.868594 13.012987,19.6320631 C13.038961,19.5795007 13.0649351,19.5532194 13.0649351,19.500657 L14.025974,16.0315375 L18.4415584,16.0315375 C19.2987013,16.0315375 20,15.3219448 20,14.4546649 L20,1.57687254 C20,0.709592641 19.2987013,0 18.4415584,0 L1.55844156,0 C0.701298701,0 0,0.709592641 0,1.57687254 L0,14.4546649 C0,15.3219448 0.701298701,16.0315375 1.55844156,16.0315375 L8.23376623,16.0315375 L11.7402597,19.6846255 Z" id="Shape" fill-opacity="0.2" fill="#DD2C35"></path>
                <path d="M12.347122,19.2104721 L13.4408695,15.2623067 L18.4415584,15.2623067 C18.8718293,15.2623067 19.2307692,14.8991217 19.2307692,14.4546649 L19.2307692,1.57687254 C19.2307692,1.13241576 18.8718293,0.769230769 18.4415584,0.769230769 L1.55844156,0.769230769 C1.12817075,0.769230769 0.769230769,1.13241576 0.769230769,1.57687254 L0.769230769,14.4546649 C0.769230769,14.8991217 1.12817075,15.2623067 1.55844156,15.2623067 L8.56165664,15.2623067 L12.2952088,19.1519459 L12.327199,19.187415 C12.3353952,19.1970904 12.3419453,19.2046182 12.347122,19.2104721 Z M12.3596595,19.2244287 C12.3594759,19.2247918 12.3592814,19.2251746 12.3590758,19.2255776 C12.3555367,19.2327396 12.3521099,19.2400475 12.3488049,19.247495 C12.3433325,19.2557208 12.3359915,19.2679304 12.3261948,19.2860143 L12.3264571,19.2850674 C12.3390508,19.2599863 12.353116,19.2342323 12.3591396,19.2238553 C12.3593181,19.2240518 12.3594913,19.2242429 12.3596595,19.2244286 C12.3597285,19.2242921 12.3596942,19.22436 12.3596595,19.2244286 C12.3647424,19.2300423 12.3652691,19.2307692 12.3636364,19.2307692 C12.3624913,19.2307692 12.3587069,19.2326109 12.3488049,19.247495 Z" id="Shape" stroke="#DD2C35" stroke-width="1.53846154"></path>
            </g>
        </g>
    </g>
</svg>