<?xml version="1.0" encoding="UTF-8"?>
<svg width="20px" height="20px" viewBox="0 0 20 20" version="1.1" xmlns="http://www.w3.org/2000/svg" xmlns:xlink="http://www.w3.org/1999/xlink">
    <!-- Generator: Sketch 49 (51002) - http://www.bohemiancoding.com/sketch -->
    <title>Shape</title>
    <desc>Created with Sketch.</desc>
    <defs></defs>
    <g id="Page-1" stroke="none" stroke-width="1" fill="none" fill-rule="evenodd">
        <g id="Icons/Inactive/Notifications" transform="translate(-19.000000, -7.000000)" fill="#000000" fill-rule="nonzero">
            <path d="M31.1521882,26.1233429 C31.1730252,26.0831709 31.1412813,26.1388443 31.1164739,26.1890459 C31.1242634,26.1746615 31.1321676,26.1612448 31.1401705,26.1487481 C31.1440579,26.1401541 31.1480662,26.1316844 31.1521882,26.1233429 Z M31.2338905,25.7548154 L32.2653381,22.0315375 L37.4415584,22.0315375 C37.7437676,22.0315375 38,21.7722747 38,21.4546649 L38,8.57687254 C38,8.2592627 37.7437676,8 37.4415584,8 L20.5584416,8 C20.2562324,8 20,8.2592627 20,8.57687254 L20,21.4546649 C20,21.7722747 20.2562324,22.0315375 20.5584416,22.0315375 L27.6600238,22.0315375 L31.2338905,25.7548154 Z M30.7402597,26.6846255 L27.2337662,23.0315375 L20.5584416,23.0315375 C19.7012987,23.0315375 19,22.3219448 19,21.4546649 L19,8.57687254 C19,7.70959264 19.7012987,7 20.5584416,7 L37.4415584,7 C38.2987013,7 39,7.70959264 39,8.57687254 L39,21.4546649 C39,22.3219448 38.2987013,23.0315375 37.4415584,23.0315375 L33.025974,23.0315375 L32.0649351,26.500657 C32.0649351,26.5532194 32.038961,26.5795007 32.012987,26.6320631 C31.8831169,26.868594 31.6233766,27 31.3636364,27 C31.1038961,27 30.8961039,26.868594 30.7402597,26.6846255 Z" id="Shape"></path>
        </g>
    </g>
</svg>