<?xml version="1.0" encoding="UTF-8"?>
<svg width="20px" height="20px" viewBox="0 0 20 20" version="1.1" xmlns="http://www.w3.org/2000/svg" xmlns:xlink="http://www.w3.org/1999/xlink">
    <!-- Generator: Sketch 47.1 (45422) - http://www.bohemiancoding.com/sketch -->
    <title>notifications</title>
    <desc>Created with Sketch.</desc>
    <defs></defs>
    <g id="Symbols" stroke="none" stroke-width="1" fill="none" fill-rule="evenodd">
        <g id="Overrides/Tab-Bar/Icons/Unselected/4" transform="translate(-21.000000, -7.000000)" stroke="#000000" stroke-width="1.53846154" fill-rule="nonzero">
            <path d="M33.2867043,26.0959897 L34.3634344,22.2047952 L39.3076923,22.2047952 C39.7267741,22.2047952 40.0769231,21.8500988 40.0769231,21.4155844 L40.0769231,8.68831169 C40.0769231,8.2537973 39.7267741,7.8991009 39.3076923,7.8991009 L22.6410256,7.8991009 C22.2219439,7.8991009 21.8717949,8.2537973 21.8717949,8.68831169 L21.8717949,21.4155844 C21.8717949,21.8500988 22.2219439,22.2047952 22.6410256,22.2047952 L29.5589199,22.2047952 L33.2475617,26.0520539 L33.2795279,26.0875369 C33.2821063,26.0905841 33.284495,26.0933957 33.2867043,26.0959897 Z M33.2831737,26.1507007 C33.2772921,26.1594402 33.2701393,26.1713143 33.2614067,26.1874127 C33.2605973,26.1889048 33.2597743,26.1904333 33.2589375,26.191999 C33.259829,26.1901928 33.2607324,26.1883761 33.261644,26.1865552 C33.2818527,26.1461889 33.3061032,26.103714 33.2941939,26.1270639 C33.2903864,26.1347776 33.2867091,26.1426593 33.2831737,26.1507007 C33.2717545,26.176674 33.2618154,26.204315 33.253753,26.2333539 L33.2586285,26.1974529 L33.2867043,26.0959897 C33.3119422,26.125622 33.3137774,26.1268731 33.3076923,26.1268731 C33.3039305,26.1268731 33.2971323,26.1299594 33.2831737,26.1507007 Z" id="notifications"></path>
        </g>
    </g>
</svg>