<?xml version="1.0" encoding="UTF-8"?>
<svg width="71px" height="70px" viewBox="0 0 71 70" version="1.1" xmlns="http://www.w3.org/2000/svg" xmlns:xlink="http://www.w3.org/1999/xlink">
    <!-- Generator: Sketch 47 (45396) - http://www.bohemiancoding.com/sketch -->
    <title>Points</title>
    <desc>Created with Sketch.</desc>
    <defs></defs>
    <g id="Prototype---Round-1-UX" stroke="none" stroke-width="1" fill="none" fill-rule="evenodd">
        <g id="Value-Prop-5" transform="translate(-153.000000, -186.000000)" fill-rule="nonzero" fill="#FFFFFF">
            <g id="Points-Icon" transform="translate(124.000000, 157.000000)">
                <g id="Points" transform="translate(29.000000, 29.000000)">
                    <path d="M69.0438776,22.225 C67.4114311,20.8214165 65.1166084,20.502449 63.1672836,21.4081863 C61.2179587,22.3139236 59.9706877,24.278695 59.9732653,26.4395833 L59.9732653,37.4427083 C59.5924239,37.3149435 59.1988721,37.229368 58.7995918,37.1875 C57.1514447,37.0025105 55.5091757,37.5820884 54.3367347,38.7625 L40.9191837,52.2520833 C39.0510904,54.1359444 38.0078474,56.6926399 38.0212245,59.3541667 L38.0212245,67.878125 C38.0212245,68.8848941 38.8321373,69.7010417 39.832449,69.7010417 C40.8327606,69.7010417 41.6436735,68.8848941 41.6436735,67.878125 L41.6436735,59.3614583 C41.6271816,57.6629992 42.2842758,56.0280295 43.4693878,54.81875 L56.872449,41.321875 C57.6123865,40.6333648 58.7605457,40.656014 59.4731087,41.3731769 C60.1856718,42.0903399 60.2081757,43.2459109 59.5240816,43.990625 L51.757551,51.821875 C51.0553322,52.5386946 51.0634414,53.6927273 51.7756633,54.3994792 C52.4878852,55.1062311 53.6345159,55.0980696 54.3367347,54.38125 L62.0815306,46.5645833 C63.1855126,45.4636995 63.7705813,43.9411889 63.689898,42.3791667 C63.6923486,42.333019 63.6923486,42.2867726 63.689898,42.240625 L63.5739796,26.446875 C63.5685547,25.493097 64.2654615,24.6825838 65.2040816,24.5510417 C65.7494352,24.470583 66.3026067,24.6326775 66.7198163,24.9951936 C67.1370259,25.3577097 67.377068,25.8848437 67.377551,26.4395833 L67.377551,46.9 C67.3829006,48.9605906 66.5689557,50.9376965 65.1171429,52.390625 L54.3367347,63.2552083 C53.9983615,63.5954967 53.8081245,64.057111 53.8078571,64.5385417 L53.8078571,67.878125 C53.8078572,68.884894 54.61877,69.7010416 55.6190816,69.7010416 C56.6193933,69.7010416 57.4303061,68.884894 57.4303061,67.878125 L57.4303061,65.2895833 L67.6673469,54.9572917 C69.7897047,52.8345233 70.9838734,49.9479179 70.9855102,46.9364583 L70.9855102,26.4395833 C70.9848106,24.8158813 70.2747622,23.2746226 69.0438776,22.225 Z" id="Shape"></path>
                    <path d="M13.5986735,65.2895833 L13.5986735,67.878125 C13.5986735,68.8848941 14.4095863,69.7010417 15.409898,69.7010417 C16.4102096,69.7010417 17.2211224,68.8848941 17.2211224,67.878125 L17.2211224,64.5385417 C17.2132163,64.0528834 17.0122919,63.590663 16.6632653,63.2552083 L5.88285714,52.390625 C4.43104429,50.9376965 3.61709938,48.9605906 3.62244898,46.9 L3.62244898,26.4395833 C3.62293203,25.8848437 3.86297412,25.3577097 4.28018369,24.9951936 C4.69739326,24.6326775 5.2505648,24.470583 5.79591837,24.5510417 C6.71740183,24.6985509 7.39422871,25.5005044 7.38979592,26.4395833 L7.29561224,42.2479167 L7.29561224,42.2479167 C7.17795657,43.8486841 7.76311496,45.4209562 8.89673469,46.55 L16.6632653,54.38125 C17.1143129,54.8614821 17.7889933,55.0571414 18.4247809,54.8920947 C19.0605684,54.7270479 19.5570494,54.227362 19.7210375,53.5874702 C19.8850256,52.9475784 19.6906213,52.2685426 19.2134694,51.8145833 L11.4686735,43.9979167 C10.7845794,43.2532025 10.8070833,42.0976316 11.5196464,41.3804686 C12.2322094,40.6633056 13.3803686,40.6406565 14.1203061,41.3291667 L27.5306122,54.81875 C28.7298682,56.0190653 29.4028239,57.6519355 29.3997959,59.3541667 L29.3997959,67.878125 C29.3997959,68.8848941 30.2107087,69.7010417 31.2110204,69.7010417 C32.2113321,69.7010417 33.0222449,68.8848941 33.0222449,67.878125 L33.0222449,59.3614583 C33.035622,56.6999315 31.992379,54.1432361 30.1242857,52.259375 L16.6632653,38.7625 C15.4908243,37.5820884 13.8485553,37.0025105 12.2004082,37.1875 C11.7984051,37.2312102 11.4023901,37.3192383 11.0194898,37.45 L11.0194898,26.4395833 C11.0194898,23.3769918 8.55269298,20.8942708 5.5097449,20.8942708 C2.46679682,20.8942708 3.21738101e-16,23.3769918 0,26.4395833 L0,46.9 C0.00163679988,49.9114596 1.19580548,52.7980649 3.31816327,54.9208333 L13.5986735,65.2895833 Z" id="Shape"></path>
                    <path d="M35.9636735,20.0958333 L35.9057143,20.0958333 C32.5513265,19.3229167 32.5513265,17.9083333 32.5513265,17.4708333 C32.5513265,15.6989583 34.0872449,14.896875 35.5072449,14.896875 C36.700261,14.8924521 37.7783712,15.6119944 38.2385714,16.7197917 C38.4479151,17.3734451 39.005792,17.8522751 39.6801603,17.9571184 C40.3545286,18.0619616 41.0299595,17.7748727 41.425516,17.2152624 C41.8210725,16.6556521 41.8690488,15.9193069 41.5494898,15.3125 C40.7840838,13.4580047 39.2171689,12.0582898 37.2967347,11.5135417 L37.2967347,9.93854167 C37.2967347,8.93177259 36.4858219,8.115625 35.4855102,8.115625 C34.4851985,8.115625 33.6742857,8.93177259 33.6742857,9.93854167 L33.6742857,11.4770833 C30.8890171,12.0971889 28.9083279,14.5852403 28.9143878,17.45625 C28.9143878,19.2208333 29.7113265,22.35625 35.0073469,23.5958333 L35.0653061,23.5958333 C38.4196939,24.36875 38.4196939,25.7833333 38.4196939,26.2208333 C38.4196939,27.9927083 36.8837755,28.7947917 35.4637755,28.7947917 C34.285694,28.7858043 33.2259915,28.0719085 32.7686735,26.9791667 C32.5393634,26.3530411 31.9872733,25.9039769 31.3308983,25.8096956 C30.6745233,25.7154142 30.01966,25.9911123 29.6254769,26.5276796 C29.2312937,27.064247 29.1613264,27.7751979 29.4432653,28.3791667 C30.2086713,30.233662 31.7755862,31.6333769 33.6960204,32.178125 L33.6960204,33.7604167 C33.6960204,34.7671857 34.5069332,35.5833333 35.5072449,35.5833333 C36.5075566,35.5833333 37.3184694,34.7671857 37.3184694,33.7604167 L37.3184694,32.221875 C40.0924438,31.5935311 42.0615516,29.1117117 42.0566327,26.25 C42.0566327,24.478125 41.2959184,21.3427083 35.9636735,20.0958333 Z" id="Shape"></path>
                    <path d="M56.9014286,21.875 C56.9102214,13.1610666 51.7015093,5.30024179 43.7050435,1.95943006 C35.7085777,-1.38138168 26.4998791,0.456050229 20.374606,6.61460362 C14.2493329,12.773157 12.4143303,22.0394297 15.7255873,30.0909063 C19.0368443,38.1423828 26.8419532,43.3927038 35.5,43.3927083 C47.306246,43.3806775 56.8774788,33.7574417 56.9014286,21.875 Z M35.5,39.7614583 C28.297648,39.7614487 21.8050358,35.3932843 19.0515301,28.6950926 C16.2980244,21.9969008 17.826297,14.288788 22.9232762,9.16725724 C28.0202553,4.04572648 35.6814083,2.52014935 42.3321426,5.3023399 C48.982877,8.08453046 53.3124397,14.6261636 53.3007143,21.875 C53.2767652,31.7548014 45.3164584,39.7534521 35.5,39.7614583 L35.5,39.7614583 Z" id="Shape"></path>
                </g>
            </g>
        </g>
    </g>
</svg>