<?xml version="1.0" encoding="UTF-8"?>
<svg width="16px" height="24px" viewBox="0 0 16 24" version="1.1" xmlns="http://www.w3.org/2000/svg" xmlns:xlink="http://www.w3.org/1999/xlink">
    <!-- Generator: Sketch Beta 47.1 (45415) - http://www.bohemiancoding.com/sketch -->
    <title>watch - material</title>
    <desc>Created with Sketch Beta.</desc>
    <defs></defs>
    <g id="Profile" stroke="none" stroke-width="1" fill="none" fill-rule="evenodd">
        <g transform="translate(-19.000000, -316.000000)" id="Group" fill="#000000">
            <g transform="translate(0.000000, 261.000000)">
                <path d="M21.011976,67 C21.011976,68.0880054 21.2794384,69.0919954 21.8143713,70.012 C22.3493041,70.9320046 23.0758437,71.6599973 23.994012,72.196 C24.9121802,72.7320027 25.9141662,73 27,73 C28.0858338,73 29.0878198,72.7320027 30.005988,72.196 C30.9241563,71.6599973 31.6506959,70.9320046 32.1856287,70.012 C32.7205616,69.0919954 32.988024,68.0880054 32.988024,67 C32.988024,65.9119946 32.7205616,64.9080046 32.1856287,63.988 C31.6506959,63.0679954 30.9241563,62.3400027 30.005988,61.804 C29.0878198,61.2679973 28.0858338,61 27,61 C25.9141662,61 24.9121802,61.2679973 23.994012,61.804 C23.0758437,62.3400027 22.3493041,63.0679954 21.8143713,63.988 C21.2794384,64.9080046 21.011976,65.9119946 21.011976,67 Z M35,67 C35,68.2320062 34.7205617,69.4079944 34.1616766,70.528 C33.6187598,71.6160054 32.8842362,72.5359962 31.9580838,73.288 L30.9760479,79 L23.0239521,79 L22.0419162,73.288 C21.0997957,72.5519963 20.3572881,71.6320055 19.8143713,70.528 C19.2714544,69.4239945 19,68.2480062 19,67 C19,65.7519938 19.2714544,64.5760055 19.8143713,63.472 C20.3572881,62.3679945 21.0997957,61.4480037 22.0419162,60.712 L23.0239521,55 L30.9760479,55 L31.9580838,60.712 C32.9002043,61.4640038 33.6347279,62.3759946 34.1616766,63.448 C34.7205617,64.5680056 35,65.7519938 35,67 Z" id="watch---material"></path>
            </g>
        </g>
    </g>
</svg>